<svg width="1563" height="1851" viewBox="0 0 1563 1851" fill="none" xmlns="http://www.w3.org/2000/svg">
<rect x="3.5" y="137.5" width="1556" height="1581" rx="51.5" stroke="white" stroke-width="7" stroke-miterlimit="3.99393"/>
<path d="M390.699 1616L116.299 1616C99.0124 1616 84.9991 1601.99 84.999 1584.7L84.9991 1310.3C84.9992 1293.01 99.0125 1279 116.299 1279L390.699 1279C407.986 1279 421.999 1293.01 421.999 1310.3L421.999 1584.7C421.999 1601.99 407.986 1616 390.699 1616Z" stroke="white" stroke-width="6"/>
<path d="M740.699 1616L466.299 1616C449.012 1616 434.999 1601.99 434.999 1584.7L434.999 1310.3C434.999 1293.01 449.012 1279 466.299 1279L740.699 1279C757.986 1279 771.999 1293.01 771.999 1310.3L771.999 1584.7C771.999 1601.99 757.986 1616 740.699 1616Z" stroke="white" stroke-width="6"/>
<path d="M1090.7 1616L816.299 1616C799.012 1616 784.999 1601.99 784.999 1584.7L784.999 1310.3C784.999 1293.01 799.012 1279 816.299 1279L1090.7 1279C1107.99 1279 1122 1293.01 1122 1310.3L1122 1584.7C1122 1601.99 1107.99 1616 1090.7 1616Z" stroke="white" stroke-width="6"/>
<path d="M1440.7 1616L1166.3 1616C1149.01 1616 1135 1601.99 1135 1584.7L1135 1310.3C1135 1293.01 1149.01 1279 1166.3 1279L1440.7 1279C1457.99 1279 1472 1293.01 1472 1310.3L1472 1584.7C1472 1601.99 1457.99 1616 1440.7 1616Z" stroke="white" stroke-width="6"/>
<path d="M390.699 1266L116.299 1266C99.0124 1266 84.9991 1251.99 84.999 1234.7L84.9991 960.3C84.9992 943.013 99.0125 929 116.299 929L390.699 929C407.986 929 421.999 943.013 421.999 960.3L421.999 1234.7C421.999 1251.99 407.986 1266 390.699 1266Z" stroke="white" stroke-width="6"/>
<path d="M740.699 1266L466.299 1266C449.012 1266 434.999 1251.99 434.999 1234.7L434.999 960.3C434.999 943.013 449.012 929 466.299 929L740.699 929C757.986 929 771.999 943.013 771.999 960.3L771.999 1234.7C771.999 1251.99 757.986 1266 740.699 1266Z" stroke="white" stroke-width="6"/>
<path d="M1090.7 1266L816.299 1266C799.012 1266 784.999 1251.99 784.999 1234.7L784.999 960.3C784.999 943.013 799.012 929 816.299 929L1090.7 929C1107.99 929 1122 943.013 1122 960.3L1122 1234.7C1122 1251.99 1107.99 1266 1090.7 1266Z" stroke="white" stroke-width="6"/>
<path d="M1440.7 1266L1166.3 1266C1149.01 1266 1135 1251.99 1135 1234.7L1135 960.3C1135 943.013 1149.01 929 1166.3 929L1440.7 929C1457.99 929 1472 943.013 1472 960.3L1472 1234.7C1472 1251.99 1457.99 1266 1440.7 1266Z" stroke="white" stroke-width="6"/>
<path d="M390.699 916L116.299 916C99.0124 916 84.9991 901.987 84.999 884.7L84.9991 610.3C84.9992 593.013 99.0125 579 116.299 579L390.699 579C407.986 579 421.999 593.013 421.999 610.3L421.999 884.7C421.999 901.987 407.986 916 390.699 916Z" stroke="white" stroke-width="6"/>
<path d="M740.699 916L466.299 916C449.012 916 434.999 901.987 434.999 884.7L434.999 610.3C434.999 593.013 449.012 579 466.299 579L740.699 579C757.986 579 771.999 593.013 771.999 610.3L771.999 884.7C771.999 901.987 757.986 916 740.699 916Z" stroke="white" stroke-width="6"/>
<path d="M1090.7 916L816.299 916C799.012 916 784.999 901.987 784.999 884.7L784.999 610.3C784.999 593.013 799.012 579 816.299 579L1090.7 579C1107.99 579 1122 593.013 1122 610.3L1122 884.7C1122 901.987 1107.99 916 1090.7 916Z" stroke="white" stroke-width="6"/>
<path d="M1440.7 916L1166.3 916C1149.01 916 1135 901.987 1135 884.7L1135 610.3C1135 593.013 1149.01 579 1166.3 579L1440.7 579C1457.99 579 1472 593.013 1472 610.3L1472 884.7C1472 901.987 1457.99 916 1440.7 916Z" stroke="white" stroke-width="6"/>
<path d="M390.699 566L116.299 566C99.0124 566 84.9991 551.987 84.999 534.7L84.9991 260.3C84.9992 243.013 99.0125 229 116.299 229L390.699 229C407.986 229 421.999 243.013 421.999 260.3L421.999 534.7C421.999 551.987 407.986 566 390.699 566Z" stroke="white" stroke-width="6"/>
<path d="M740.699 566L466.299 566C449.012 566 434.999 551.987 434.999 534.7L434.999 260.3C434.999 243.013 449.012 229 466.299 229L740.699 229C757.986 229 771.999 243.013 771.999 260.3L771.999 534.7C771.999 551.987 757.986 566 740.699 566Z" stroke="white" stroke-width="6"/>
<path d="M1090.7 566L816.299 566C799.012 566 784.999 551.987 784.999 534.7L784.999 260.3C784.999 243.013 799.012 229 816.299 229L1090.7 229C1107.99 229 1122 243.013 1122 260.3L1122 534.7C1122 551.987 1107.99 566 1090.7 566Z" stroke="white" stroke-width="6"/>
<path d="M1440.7 566L1166.3 566C1149.01 566 1135 551.987 1135 534.7L1135 260.3C1135 243.013 1149.01 229 1166.3 229L1440.7 229C1457.99 229 1472 243.013 1472 260.3L1472 534.7C1472 551.987 1457.99 566 1440.7 566Z" stroke="white" stroke-width="6"/>
<circle cx="602.999" cy="50" r="27" stroke="white" stroke-width="6"/>
<path d="M602.999 3.00001C628.956 3.00001 649.999 24.0426 649.999 50C649.999 72.7347 633.854 91.705 612.402 96.0596L609.999 96.5479L609.999 225.5C609.999 227.157 608.656 228.5 606.999 228.5L598.999 228.5C597.342 228.5 595.999 227.157 595.999 225.5L595.999 100.003L596 99.0029L596.002 96.5479L593.597 96.0596C572.144 91.7054 555.999 72.735 555.999 50C555.999 24.0426 577.042 3 602.999 3.00001Z" stroke="white" stroke-width="6"/>
<circle cx="1303" cy="1800.5" r="27" transform="rotate(180 1303 1800.5)" stroke="white" stroke-width="6"/>
<path d="M1303 1847.5C1277.04 1847.5 1256 1826.46 1256 1800.5C1256 1777.77 1272.14 1758.79 1293.6 1754.44L1296 1753.95L1296 1625C1296 1623.34 1297.34 1622 1299 1622L1307 1622C1308.66 1622 1310 1623.34 1310 1625L1310 1750.5L1310 1751.5L1310 1753.95L1312.4 1754.44C1333.85 1758.79 1350 1777.77 1350 1800.5C1350 1826.46 1328.96 1847.5 1303 1847.5Z" stroke="white" stroke-width="6"/>
</svg>
