<svg width="792" height="1127" viewBox="0 0 792 1127" fill="none" xmlns="http://www.w3.org/2000/svg">
<path d="M357.7 920L83.2998 920C66.0134 920 52.0001 905.987 52 888.7L52 614.3C52.0002 597.013 66.0135 583 83.2998 583L357.7 583C374.987 583 389 597.013 389 614.3L389 888.7C389 905.987 374.987 920 357.7 920Z" stroke="white" stroke-width="6"/>
<path d="M707.698 920L433.298 920C416.011 920 401.998 905.987 401.998 888.7L401.998 614.3C401.998 597.013 416.012 583 433.298 583L707.698 583C724.985 583 738.998 597.013 738.998 614.3L738.998 888.7C738.998 905.987 724.985 920 707.698 920Z" stroke="white" stroke-width="6"/>
<path d="M358.7 571L84.2998 571C67.0134 571 53.0001 556.987 53 539.7L53 265.3C53.0002 248.013 67.0135 234 84.2998 234L358.7 234C375.987 234 390 248.013 390 265.3L390 539.7C390 556.987 375.987 571 358.7 571Z" stroke="white" stroke-width="6"/>
<path d="M708.698 571L434.298 571C417.011 571 402.998 556.987 402.998 539.7L402.998 265.3C402.998 248.013 417.012 234 434.298 234L708.698 234C725.985 234 739.998 248.013 739.998 265.3L739.998 539.7C739.998 556.987 725.985 571 708.698 571Z" stroke="white" stroke-width="6"/>
<path d="M55 172.5H737C765.443 172.5 788.5 195.557 788.5 224V930C788.5 958.443 765.443 981.5 737 981.5H55C26.5573 981.5 3.5 958.443 3.5 930V224C3.5 195.557 26.5573 172.5 55 172.5Z" stroke="white" stroke-width="7" stroke-miterlimit="3.99393"/>
<circle cx="222" cy="50" r="27" stroke="white" stroke-width="6"/>
<path d="M222 3.00001C247.957 3.00001 269 24.0426 269 50C269 72.7347 252.855 91.705 231.403 96.0596L229 96.5479L229 225.5C229 227.157 227.657 228.5 226 228.5L218 228.5C216.343 228.5 215 227.157 215 225.5L215 100.003L215.001 99.0029L215.003 96.5479L212.598 96.0596C191.145 91.7054 175 72.735 175 50C175 24.0426 196.043 3 222 3.00001Z" stroke="white" stroke-width="6"/>
<circle cx="570" cy="1076.5" r="27" transform="rotate(180 570 1076.5)" stroke="white" stroke-width="6"/>
<path d="M570 1123.5C544.043 1123.5 523 1102.46 523 1076.5C523 1053.77 539.145 1034.79 560.597 1030.44L563 1029.95L563 974L563.004 973.846C563.084 972.261 564.395 971 566 971L574 971C575.657 971 577 972.343 577 974L577 1026.5L576.999 1027.5L576.997 1029.95L579.402 1030.44C600.855 1034.79 617 1053.77 617 1076.5C617 1102.46 595.957 1123.5 570 1123.5Z" stroke="white" stroke-width="6"/>
</svg>
