<svg width="1158" height="1487" viewBox="0 0 1158 1487" fill="none" xmlns="http://www.w3.org/2000/svg">
<path d="M709.7 921L435.3 921C418.013 921 404 906.987 404 889.7L404 615.3C404 598.013 418.013 584 435.3 584L709.7 584C726.987 584 741 598.013 741 615.3L741 889.7C741 906.987 726.987 921 709.7 921Z" stroke="white" stroke-width="6"/>
<path d="M360.7 572L86.2998 572C69.0134 572 55.0001 557.987 55 540.7L55 266.3C55.0002 249.013 69.0135 235 86.2998 235L360.7 235C377.987 235 392 249.013 392 266.3L392 540.7C392 557.987 377.987 572 360.7 572Z" stroke="white" stroke-width="6"/>
<path d="M709.7 572L435.3 572C418.013 572 404 557.987 404 540.7L404 266.3C404 249.013 418.013 235 435.3 235L709.7 235C726.987 235 741 249.013 741 266.3L741 540.7C741 557.987 726.987 572 709.7 572Z" stroke="white" stroke-width="6"/>
<path d="M1058.7 572L784.3 572C767.013 572 753 557.987 753 540.7L753 266.3C753 249.013 767.013 235 784.3 235L1058.7 235C1075.99 235 1090 249.013 1090 266.3L1090 540.7C1090 557.987 1075.99 572 1058.7 572Z" stroke="white" stroke-width="6"/>
<path d="M360.7 921L86.2998 921C69.0134 921 55.0001 906.987 55 889.7L55 615.3C55.0002 598.013 69.0135 584 86.2998 584L360.7 584C377.987 584 392 598.013 392 615.3L392 889.7C392 906.987 377.987 921 360.7 921Z" stroke="white" stroke-width="6"/>
<path d="M1058.7 921L784.3 921C767.013 921 753 906.987 753 889.7L753 615.3C753 598.013 767.013 584 784.3 584L1058.7 584C1075.99 584 1090 598.013 1090 615.3L1090 889.7C1090 906.987 1075.99 921 1058.7 921Z" stroke="white" stroke-width="6"/>
<path d="M360.7 1270L86.2998 1270C69.0134 1270 55.0001 1255.99 55 1238.7L55 964.3C55.0002 947.013 69.0135 933 86.2998 933L360.7 933C377.987 933 392 947.013 392 964.3L392 1238.7C392 1255.99 377.987 1270 360.7 1270Z" stroke="white" stroke-width="6"/>
<path d="M709.7 1270L435.3 1270C418.013 1270 404 1255.99 404 1238.7L404 964.3C404 947.013 418.013 933 435.3 933L709.7 933C726.987 933 741 947.013 741 964.3L741 1238.7C741 1255.99 726.987 1270 709.7 1270Z" stroke="white" stroke-width="6"/>
<path d="M1058.7 1270L784.3 1270C767.013 1270 753 1255.99 753 1238.7L753 964.3C753 947.013 767.013 933 784.3 933L1058.7 933C1075.99 933 1090 947.013 1090 964.3L1090 1238.7C1090 1255.99 1075.99 1270 1058.7 1270Z" stroke="white" stroke-width="6"/>
<path d="M55 180.5H1103C1131.44 180.5 1154.5 203.557 1154.5 232V1275C1154.5 1303.44 1131.44 1326.5 1103 1326.5H55C26.5573 1326.5 3.5 1303.44 3.5 1275V232C3.50001 203.557 26.5573 180.5 55 180.5Z" stroke="white" stroke-width="7" stroke-miterlimit="3.99393"/>
<circle cx="570" cy="50" r="27" stroke="white" stroke-width="6"/>
<path d="M570 3.00001C595.957 3.00001 617 24.0426 617 50C617 72.7347 600.855 91.705 579.403 96.0596L577 96.5479L577 225.5C577 227.157 575.657 228.5 574 228.5L566 228.5C564.343 228.5 563 227.157 563 225.5L563 100.003L563.001 99.0029L563.003 96.5479L560.598 96.0596C539.145 91.7054 523 72.735 523 50C523 24.0426 544.043 3 570 3.00001Z" stroke="white" stroke-width="6"/>
<circle cx="223" cy="1436.5" r="27" transform="rotate(180 223 1436.5)" stroke="white" stroke-width="6"/>
<path d="M223 1483.5C197.043 1483.5 176 1462.46 176 1436.5C176 1413.77 192.145 1394.79 213.597 1390.44L216 1389.95L216 1274L216.004 1273.85C216.084 1272.26 217.395 1271 219 1271L227 1271C228.657 1271 230 1272.34 230 1274L230 1386.5L229.999 1387.5L229.997 1389.95L232.402 1390.44C253.855 1394.79 270 1413.77 270 1436.5C270 1462.46 248.957 1483.5 223 1483.5Z" stroke="white" stroke-width="6"/>
</svg>
