<svg width="300" height="300" viewBox="0 0 300 300" fill="none" xmlns="http://www.w3.org/2000/svg">
<path d="M270 300H166C162.686 300 160 297.314 160 294V236C160 232.686 157.314 230 154 230H146C142.686 230 140 232.686 140 236H134C134 229.373 139.373 224 146 224H154C160.627 224 166 229.373 166 236V294H270C283.255 294 294 283.255 294 270H300L299.99 270.774C299.579 286.985 286.31 300 270 300ZM294 30H300V270H294V30ZM134 236H140V294H134V236ZM64 166H6.00001L6.00001 270C6.00001 283.255 16.7452 294 30 294H140C140 297.314 137.314 300 134 300H30C13.4315 300 1.1215e-05 286.569 1.04907e-05 270L5.94475e-06 166C5.7999e-06 162.686 2.6863 160 6.00001 160H64C67.3137 160 70 157.314 70 154V146C70 142.686 67.3137 140 64 140H6C2.6863 140 4.69083e-06 137.314 4.54599e-06 134L0 30C-7.24234e-07 13.4315 13.4315 1.1215e-05 30 1.04907e-05L270 0C286.569 -7.24234e-07 300 13.4315 300 30H294C294 16.7452 283.255 6 270 6L30 6.00001C16.7452 6.00001 6 16.7452 6 30L6 134H64C70.6274 134 76 139.373 76 146V154C76 160.627 70.6274 166 64 166Z" fill="white"/>
<path d="M174 150C174 136.745 163.255 126 150 126C136.745 126 126 136.745 126 150C126 163.255 136.745 174 150 174V180C133.431 180 120 166.569 120 150C120 133.431 133.431 120 150 120C166.569 120 180 133.431 180 150C180 166.569 166.569 180 150 180V174C163.255 174 174 163.255 174 150Z" fill="white"/>
<path d="M194 150C194 125.7 174.301 106 150 106C125.699 106 106 125.7 106 150C106 174.301 125.699 194 150 194V200C122.386 200 100 177.614 100 150C100 122.386 122.386 100 150 100C177.614 100 200 122.386 200 150C200 177.614 177.614 200 150 200V194C174.301 194 194 174.301 194 150Z" fill="white"/>
</svg>
