<svg width="300" height="300" viewBox="0 0 300 300" fill="none" xmlns="http://www.w3.org/2000/svg">
<path d="M30 0L134 4.54598e-06C137.314 4.69083e-06 140 2.6863 140 6V64C140 67.3137 142.686 70 146 70H154C157.314 70 160 67.3137 160 64H166C166 70.6274 160.627 76 154 76H146C139.373 76 134 70.6274 134 64V6L30 6C16.7452 6 6.00001 16.7452 6.00001 30H1.04907e-05L0.00977615 29.2256C0.420528 13.0149 13.6904 -7.12916e-07 30 0ZM6 270H0L1.04907e-05 30H6.00001L6 270ZM166 64H160V6.00001H166V64ZM236 134H294V30C294 16.7452 283.255 6.00001 270 6.00001L160 6.00001C160 2.6863 162.686 5.7999e-06 166 5.94475e-06L270 1.04907e-05C286.569 1.22458e-05 300 13.4315 300 30V134C300 137.314 297.314 140 294 140H236C232.686 140 230 142.686 230 146V154C230 157.314 232.686 160 236 160H294C297.314 160 300 162.686 300 166V270C300 286.569 286.569 300 270 300H30C13.4315 300 -7.24234e-07 286.569 0 270H6C6 283.255 16.7452 294 30 294H270C283.255 294 294 283.255 294 270V166H236C229.373 166 224 160.627 224 154V146C224 139.373 229.373 134 236 134Z" fill="white"/>
<path d="M174 150C174 136.745 163.255 126 150 126C136.745 126 126 136.745 126 150C126 163.255 136.745 174 150 174V180C133.431 180 120 166.569 120 150C120 133.431 133.431 120 150 120C166.569 120 180 133.431 180 150C180 166.569 166.569 180 150 180V174C163.255 174 174 163.255 174 150Z" fill="white"/>
<path d="M194 150C194 125.699 174.301 106 150 106C125.699 106 106 125.699 106 150C106 174.301 125.699 194 150 194V200C122.386 200 100 177.614 100 150C100 122.386 122.386 100 150 100C177.614 100 200 122.386 200 150C200 177.614 177.614 200 150 200V194C174.301 194 194 174.301 194 150Z" fill="white"/>
</svg>
