<svg width="300" height="300" viewBox="0 0 300 300" fill="none" xmlns="http://www.w3.org/2000/svg">
<path d="M300 30L300 134C300 137.314 297.314 140 294 140L236 140C232.686 140 230 142.686 230 146V154C230 157.314 232.686 160 236 160V166C229.373 166 224 160.627 224 154V146C224 139.373 229.373 134 236 134L294 134L294 30C294 16.7452 283.255 6.00002 270 6.00002V2.09815e-05L270.774 0.00978667C286.985 0.42054 300 13.6904 300 30ZM30 6V0L270 2.09815e-05V6.00002L30 6ZM236 166V160L294 160V166L236 166ZM166 236V294L270 294C283.255 294 294 283.255 294 270V160C297.314 160 300 162.686 300 166V270C300 286.569 286.569 300 270 300L166 300C162.686 300 160 297.314 160 294V236C160 232.686 157.314 230 154 230H146C142.686 230 140 232.686 140 236V294C140 297.314 137.314 300 134 300H30C13.4315 300 -1.44847e-06 286.569 0 270L2.09815e-05 30C2.24299e-05 13.4315 13.4315 -1.44847e-06 30 0V6C16.7452 6 6.00002 16.7452 6.00002 30L6 270C6 283.255 16.7452 294 30 294H134V236C134 229.373 139.373 224 146 224H154C160.627 224 166 229.373 166 236Z" fill="white"/>
<path d="M174 150C174 136.745 163.255 126 150 126C136.745 126 126 136.745 126 150C126 163.255 136.745 174 150 174V180C133.431 180 120 166.569 120 150C120 133.431 133.431 120 150 120C166.569 120 180 133.431 180 150C180 166.569 166.569 180 150 180V174C163.255 174 174 163.255 174 150Z" fill="white"/>
<path d="M194 150C194 125.699 174.301 106 150 106C125.699 106 106 125.699 106 150C106 174.301 125.699 194 150 194V200C122.386 200 100 177.614 100 150C100 122.386 122.386 100 150 100C177.614 100 200 122.386 200 150C200 177.614 177.614 200 150 200V194C174.301 194 194 174.301 194 150Z" fill="white"/>
</svg>
