<svg width="1563" height="2631" viewBox="0 0 1563 2631" fill="none" xmlns="http://www.w3.org/2000/svg">
<path d="M1508 2623.5V2630.5H55V2623.5H1508ZM1556 2575.5V55C1556 28.4903 1534.51 7 1508 7H55C28.4904 7 7.00003 28.4903 7 55V2575.5C7 2602.01 28.4903 2623.5 55 2623.5V2630.5L54.2891 2630.5C24.241 2630.11 0 2605.64 0 2575.5V55C3.0495e-05 24.8617 24.2411 0.385529 54.2891 0.00488281L55 0H1508C1538.38 0 1563 24.6243 1563 55V2575.5L1563 2576.21C1562.61 2606.26 1538.14 2630.5 1508 2630.5V2623.5C1534.51 2623.5 1556 2602.01 1556 2575.5Z" fill="white"/>
<path d="M116.3 1148V1142H184.9V1148H116.3ZM88 1176.3L88 1450.7C88.0001 1466.33 100.67 1479 116.3 1479H390.7C406.33 1479 419 1466.33 419 1450.7L419 1176.3C419 1160.67 406.33 1148 390.7 1148V1142L391.585 1142.01C409.825 1142.47 424.527 1157.17 424.989 1175.42L425 1176.3L425 1450.7C425 1469.64 409.643 1485 390.7 1485H116.3C97.3565 1485 82.0001 1469.64 82 1450.7L82 1176.3L82.0107 1175.42C82.4801 1156.88 97.6524 1142 116.3 1142V1148C100.67 1148 88.0001 1160.67 88 1176.3ZM184.9 1148V1142H390.7V1148H184.9Z" fill="white"/>
<path d="M116.3 1498V1492H184.9V1498H116.3ZM88 1526.3L88 1800.7C88.0001 1816.33 100.67 1829 116.3 1829H390.7C406.33 1829 419 1816.33 419 1800.7L419 1526.3C419 1510.67 406.33 1498 390.7 1498V1492L391.585 1492.01C409.825 1492.47 424.527 1507.17 424.989 1525.42L425 1526.3L425 1800.7C425 1819.64 409.643 1835 390.7 1835H116.3C97.3565 1835 82.0001 1819.64 82 1800.7L82 1526.3L82.0107 1525.42C82.4801 1506.88 97.6524 1492 116.3 1492V1498C100.67 1498 88.0001 1510.67 88 1526.3ZM184.9 1498V1492H390.7V1498H184.9Z" fill="white"/>
<path d="M116.3 1848V1842H184.9V1848H116.3ZM88 1876.3L88 2150.7C88.0001 2166.33 100.67 2179 116.3 2179H390.7C406.33 2179 419 2166.33 419 2150.7L419 1876.3C419 1860.67 406.33 1848 390.7 1848V1842L391.585 1842.01C409.825 1842.47 424.527 1857.17 424.989 1875.42L425 1876.3L425 2150.7C425 2169.64 409.643 2185 390.7 2185H116.3C97.3565 2185 82.0001 2169.64 82 2150.7L82 1876.3L82.0107 1875.42C82.4801 1856.88 97.6524 1842 116.3 1842V1848C100.67 1848 88.0001 1860.67 88 1876.3ZM184.9 1848V1842H390.7V1848H184.9Z" fill="white"/>
<path d="M116.3 2198V2192H184.9V2198H116.3ZM88 2226.3L88 2500.7C88.0001 2516.33 100.67 2529 116.3 2529H390.7C406.33 2529 419 2516.33 419 2500.7L419 2226.3C419 2210.67 406.33 2198 390.7 2198V2192L391.585 2192.01C409.825 2192.47 424.527 2207.17 424.989 2225.42L425 2226.3L425 2500.7C425 2519.64 409.643 2535 390.7 2535H116.3C97.3565 2535 82.0001 2519.64 82 2500.7L82 2226.3L82.0107 2225.42C82.4801 2206.88 97.6524 2192 116.3 2192V2198C100.67 2198 88.0001 2210.67 88 2226.3ZM184.9 2198V2192H390.7V2198H184.9Z" fill="white"/>
<path d="M466.3 1148V1142H534.9V1148H466.3ZM438 1176.3L438 1450.7C438 1466.33 450.67 1479 466.3 1479H740.7C756.33 1479 769 1466.33 769 1450.7V1176.3C769 1160.67 756.33 1148 740.7 1148V1142L741.585 1142.01C759.825 1142.47 774.527 1157.17 774.989 1175.42L775 1176.3V1450.7C775 1469.64 759.643 1485 740.7 1485H466.3C447.357 1485 432 1469.64 432 1450.7L432 1176.3L432.011 1175.42C432.48 1156.88 447.652 1142 466.3 1142V1148C450.67 1148 438 1160.67 438 1176.3ZM534.9 1148V1142H740.7V1148H534.9Z" fill="white"/>
<path d="M466.3 1498V1492H534.9V1498H466.3ZM438 1526.3L438 1800.7C438 1816.33 450.67 1829 466.3 1829H740.7C756.33 1829 769 1816.33 769 1800.7V1526.3C769 1510.67 756.33 1498 740.7 1498V1492L741.585 1492.01C759.825 1492.47 774.527 1507.17 774.989 1525.42L775 1526.3V1800.7C775 1819.64 759.643 1835 740.7 1835H466.3C447.357 1835 432 1819.64 432 1800.7L432 1526.3L432.011 1525.42C432.48 1506.88 447.652 1492 466.3 1492V1498C450.67 1498 438 1510.67 438 1526.3ZM534.9 1498V1492H740.7V1498H534.9Z" fill="white"/>
<path d="M466.3 1848V1842H534.9V1848H466.3ZM438 1876.3L438 2150.7C438 2166.33 450.67 2179 466.3 2179H740.7C756.33 2179 769 2166.33 769 2150.7V1876.3C769 1860.67 756.33 1848 740.7 1848V1842L741.585 1842.01C759.825 1842.47 774.527 1857.17 774.989 1875.42L775 1876.3V2150.7C775 2169.64 759.643 2185 740.7 2185H466.3C447.357 2185 432 2169.64 432 2150.7L432 1876.3L432.011 1875.42C432.48 1856.88 447.652 1842 466.3 1842V1848C450.67 1848 438 1860.67 438 1876.3ZM534.9 1848V1842H740.7V1848H534.9Z" fill="white"/>
<path d="M466.3 2198V2192H534.9V2198H466.3ZM438 2226.3L438 2500.7C438 2516.33 450.67 2529 466.3 2529H740.7C756.33 2529 769 2516.33 769 2500.7V2226.3C769 2210.67 756.33 2198 740.7 2198V2192L741.585 2192.01C759.825 2192.47 774.527 2207.17 774.989 2225.42L775 2226.3V2500.7C775 2519.64 759.643 2535 740.7 2535H466.3C447.357 2535 432 2519.64 432 2500.7L432 2226.3L432.011 2225.42C432.48 2206.88 447.652 2192 466.3 2192V2198C450.67 2198 438 2210.67 438 2226.3ZM534.9 2198V2192H740.7V2198H534.9Z" fill="white"/>
<path d="M816.3 1148V1142H884.9V1148H816.3ZM788 1176.3L788 1450.7C788 1466.33 800.67 1479 816.3 1479H1090.7C1106.33 1479 1119 1466.33 1119 1450.7V1176.3C1119 1160.67 1106.33 1148 1090.7 1148V1142L1091.58 1142.01C1109.83 1142.47 1124.53 1157.17 1124.99 1175.42L1125 1176.3V1450.7C1125 1469.64 1109.64 1485 1090.7 1485H816.3C797.356 1485 782 1469.64 782 1450.7L782 1176.3L782.011 1175.42C782.48 1156.88 797.652 1142 816.3 1142V1148C800.67 1148 788 1160.67 788 1176.3ZM884.9 1148V1142H1090.7V1148H884.9Z" fill="white"/>
<path d="M816.3 1498V1492H884.9V1498H816.3ZM788 1526.3L788 1800.7C788 1816.33 800.67 1829 816.3 1829H1090.7C1106.33 1829 1119 1816.33 1119 1800.7V1526.3C1119 1510.67 1106.33 1498 1090.7 1498V1492L1091.58 1492.01C1109.83 1492.47 1124.53 1507.17 1124.99 1525.42L1125 1526.3V1800.7C1125 1819.64 1109.64 1835 1090.7 1835H816.3C797.356 1835 782 1819.64 782 1800.7L782 1526.3L782.011 1525.42C782.48 1506.88 797.652 1492 816.3 1492V1498C800.67 1498 788 1510.67 788 1526.3ZM884.9 1498V1492H1090.7V1498H884.9Z" fill="white"/>
<path d="M816.3 1848V1842H884.9V1848H816.3ZM788 1876.3L788 2150.7C788 2166.33 800.67 2179 816.3 2179H1090.7C1106.33 2179 1119 2166.33 1119 2150.7V1876.3C1119 1860.67 1106.33 1848 1090.7 1848V1842L1091.58 1842.01C1109.83 1842.47 1124.53 1857.17 1124.99 1875.42L1125 1876.3V2150.7C1125 2169.64 1109.64 2185 1090.7 2185H816.3C797.356 2185 782 2169.64 782 2150.7L782 1876.3L782.011 1875.42C782.48 1856.88 797.652 1842 816.3 1842V1848C800.67 1848 788 1860.67 788 1876.3ZM884.9 1848V1842H1090.7V1848H884.9Z" fill="white"/>
<path d="M816.3 2198V2192H884.9V2198H816.3ZM788 2226.3L788 2500.7C788 2516.33 800.67 2529 816.3 2529H1090.7C1106.33 2529 1119 2516.33 1119 2500.7V2226.3C1119 2210.67 1106.33 2198 1090.7 2198V2192L1091.58 2192.01C1109.83 2192.47 1124.53 2207.17 1124.99 2225.42L1125 2226.3V2500.7C1125 2519.64 1109.64 2535 1090.7 2535H816.3C797.356 2535 782 2519.64 782 2500.7L782 2226.3L782.011 2225.42C782.48 2206.88 797.652 2192 816.3 2192V2198C800.67 2198 788 2210.67 788 2226.3ZM884.9 2198V2192H1090.7V2198H884.9Z" fill="white"/>
<path d="M1166.3 1148V1142H1234.9V1148H1166.3ZM1138 1176.3V1450.7C1138 1466.33 1150.67 1479 1166.3 1479H1440.7C1456.33 1479 1469 1466.33 1469 1450.7V1176.3C1469 1160.67 1456.33 1148 1440.7 1148V1142L1441.58 1142.01C1459.83 1142.47 1474.53 1157.17 1474.99 1175.42L1475 1176.3V1450.7C1475 1469.64 1459.64 1485 1440.7 1485H1166.3C1147.36 1485 1132 1469.64 1132 1450.7V1176.3L1132.01 1175.42C1132.48 1156.88 1147.65 1142 1166.3 1142V1148C1150.67 1148 1138 1160.67 1138 1176.3ZM1234.9 1148V1142H1440.7V1148H1234.9Z" fill="white"/>
<path d="M1166.3 1498V1492H1234.9V1498H1166.3ZM1138 1526.3V1800.7C1138 1816.33 1150.67 1829 1166.3 1829H1440.7C1456.33 1829 1469 1816.33 1469 1800.7V1526.3C1469 1510.67 1456.33 1498 1440.7 1498V1492L1441.58 1492.01C1459.83 1492.47 1474.53 1507.17 1474.99 1525.42L1475 1526.3V1800.7C1475 1819.64 1459.64 1835 1440.7 1835H1166.3C1147.36 1835 1132 1819.64 1132 1800.7V1526.3L1132.01 1525.42C1132.48 1506.88 1147.65 1492 1166.3 1492V1498C1150.67 1498 1138 1510.67 1138 1526.3ZM1234.9 1498V1492H1440.7V1498H1234.9Z" fill="white"/>
<path d="M1166.3 1848V1842H1234.9V1848H1166.3ZM1138 1876.3V2150.7C1138 2166.33 1150.67 2179 1166.3 2179H1440.7C1456.33 2179 1469 2166.33 1469 2150.7V1876.3C1469 1860.67 1456.33 1848 1440.7 1848V1842L1441.58 1842.01C1459.83 1842.47 1474.53 1857.17 1474.99 1875.42L1475 1876.3V2150.7C1475 2169.64 1459.64 2185 1440.7 2185H1166.3C1147.36 2185 1132 2169.64 1132 2150.7V1876.3L1132.01 1875.42C1132.48 1856.88 1147.65 1842 1166.3 1842V1848C1150.67 1848 1138 1860.67 1138 1876.3ZM1234.9 1848V1842H1440.7V1848H1234.9Z" fill="white"/>
<path d="M1166.3 2198V2192H1234.9V2198H1166.3ZM1138 2226.3V2500.7C1138 2516.33 1150.67 2529 1166.3 2529H1440.7C1456.33 2529 1469 2516.33 1469 2500.7V2226.3C1469 2210.67 1456.33 2198 1440.7 2198V2192L1441.58 2192.01C1459.83 2192.47 1474.53 2207.17 1474.99 2225.42L1475 2226.3V2500.7C1475 2519.64 1459.64 2535 1440.7 2535H1166.3C1147.36 2535 1132 2519.64 1132 2500.7V2226.3L1132.01 2225.42C1132.48 2206.88 1147.65 2192 1166.3 2192V2198C1150.67 2198 1138 2210.67 1138 2226.3ZM1234.9 2198V2192H1440.7V2198H1234.9Z" fill="white"/>
<path d="M116.3 798V792H184.9V798H116.3ZM88.0001 826.3L88.0001 1100.7C88.0002 1116.33 100.67 1129 116.3 1129H390.7C406.33 1129 419 1116.33 419 1100.7L419 826.3C419 810.67 406.33 798 390.7 798V792L391.585 792.012C409.825 792.474 424.527 807.175 424.989 825.415L425 826.3L425 1100.7C425 1119.64 409.644 1135 390.7 1135H116.3C97.3566 1135 82.0002 1119.64 82.0001 1100.7L82.0001 826.3L82.0108 825.415C82.4802 806.881 97.6525 792 116.3 792V798C100.67 798 88.0002 810.67 88.0001 826.3ZM184.9 798V792H390.7V798H184.9Z" fill="white"/>
<path d="M466.3 798V792H534.9V798H466.3ZM438 826.3L438 1100.7C438 1116.33 450.67 1129 466.3 1129H740.7C756.33 1129 769 1116.33 769 1100.7V826.3C769 810.67 756.33 798 740.7 798V792L741.585 792.012C759.825 792.474 774.527 807.175 774.989 825.415L775 826.3V1100.7C775 1119.64 759.643 1135 740.7 1135H466.3C447.357 1135 432 1119.64 432 1100.7L432 826.3L432.011 825.415C432.48 806.881 447.652 792 466.3 792V798C450.67 798 438 810.67 438 826.3ZM534.9 798V792H740.7V798H534.9Z" fill="white"/>
<path d="M816.3 798V792H884.9V798H816.3ZM788 826.3L788 1100.7C788 1116.33 800.67 1129 816.3 1129H1090.7C1106.33 1129 1119 1116.33 1119 1100.7V826.3C1119 810.67 1106.33 798 1090.7 798V792L1091.58 792.012C1109.83 792.474 1124.53 807.175 1124.99 825.415L1125 826.3V1100.7C1125 1119.64 1109.64 1135 1090.7 1135H816.3C797.356 1135 782 1119.64 782 1100.7L782 826.3L782.011 825.415C782.48 806.881 797.652 792 816.3 792V798C800.67 798 788 810.67 788 826.3ZM884.9 798V792H1090.7V798H884.9Z" fill="white"/>
<path d="M1166.3 798V792H1234.9V798H1166.3ZM1138 826.3V1100.7C1138 1116.33 1150.67 1129 1166.3 1129H1440.7C1456.33 1129 1469 1116.33 1469 1100.7V826.3C1469 810.67 1456.33 798 1440.7 798V792L1441.58 792.012C1459.83 792.474 1474.53 807.175 1474.99 825.415L1475 826.3V1100.7C1475 1119.64 1459.64 1135 1440.7 1135H1166.3C1147.36 1135 1132 1119.64 1132 1100.7V826.3L1132.01 825.415C1132.48 806.881 1147.65 792 1166.3 792V798C1150.67 798 1138 810.67 1138 826.3ZM1234.9 798V792H1440.7V798H1234.9Z" fill="white"/>
<path d="M116.3 448V442H184.9V448H116.3ZM88.0001 476.3L88.0001 750.7C88.0002 766.33 100.67 779 116.3 779H390.7C406.33 779 419 766.33 419 750.7L419 476.3C419 460.67 406.33 448 390.7 448V442L391.585 442.012C409.825 442.474 424.527 457.175 424.989 475.415L425 476.3L425 750.7C425 769.643 409.644 785 390.7 785H116.3C97.3566 785 82.0002 769.643 82.0001 750.7L82.0001 476.3L82.0108 475.415C82.4802 456.881 97.6525 442 116.3 442V448C100.67 448 88.0002 460.67 88.0001 476.3ZM184.9 448V442L390.7 442V448L184.9 448Z" fill="white"/>
<path d="M466.3 448V442H534.9V448H466.3ZM438 476.3L438 750.7C438 766.33 450.67 779 466.3 779H740.7C756.33 779 769 766.33 769 750.7V476.3C769 460.67 756.33 448 740.7 448V442L741.585 442.012C759.825 442.474 774.527 457.175 774.989 475.415L775 476.3V750.7C775 769.643 759.643 785 740.7 785H466.3C447.357 785 432 769.643 432 750.7L432 476.3L432.011 475.415C432.48 456.881 447.652 442 466.3 442V448C450.67 448 438 460.67 438 476.3ZM534.9 448V442L740.7 442V448L534.9 448Z" fill="white"/>
<path d="M816.3 448V442H884.9V448H816.3ZM788 476.3L788 750.7C788 766.33 800.67 779 816.3 779H1090.7C1106.33 779 1119 766.33 1119 750.7V476.3C1119 460.67 1106.33 448 1090.7 448V442L1091.58 442.012C1109.83 442.474 1124.53 457.175 1124.99 475.415L1125 476.3V750.7C1125 769.643 1109.64 785 1090.7 785H816.3C797.356 785 782 769.643 782 750.7L782 476.3L782.011 475.415C782.48 456.881 797.652 442 816.3 442V448C800.67 448 788 460.67 788 476.3ZM884.9 448V442L1090.7 442V448L884.9 448Z" fill="white"/>
<path d="M1166.3 448V442H1234.9V448H1166.3ZM1138 476.3V750.7C1138 766.33 1150.67 779 1166.3 779H1440.7C1456.33 779 1469 766.33 1469 750.7V476.3C1469 460.67 1456.33 448 1440.7 448V442L1441.58 442.012C1459.83 442.474 1474.53 457.175 1474.99 475.415L1475 476.3V750.7C1475 769.643 1459.64 785 1440.7 785H1166.3C1147.36 785 1132 769.643 1132 750.7V476.3L1132.01 475.415C1132.48 456.881 1147.65 442 1166.3 442V448C1150.67 448 1138 460.67 1138 476.3ZM1234.9 448V442L1440.7 442V448L1234.9 448Z" fill="white"/>
<path d="M116.3 98V92L184.9 92V98L116.3 98ZM88.0001 126.3L88.0001 400.7C88.0002 416.33 100.67 429 116.3 429L390.7 429C406.33 429 419 416.33 419 400.7L419 126.3C419 110.67 406.33 98.0001 390.7 98V92L391.585 92.0117C409.825 92.4737 424.527 107.175 424.989 125.415L425 126.3L425 400.7C425 419.643 409.644 435 390.7 435L116.3 435C97.3566 435 82.0002 419.643 82.0001 400.7L82.0001 126.3L82.0108 125.415C82.4802 106.881 97.6525 92.0001 116.3 92V98C100.67 98.0001 88.0002 110.67 88.0001 126.3ZM184.9 98V92L390.7 92V98L184.9 98Z" fill="white"/>
<path d="M466.3 98V92L534.9 92V98L466.3 98ZM438 126.3L438 400.7C438 416.33 450.67 429 466.3 429L740.7 429C756.33 429 769 416.33 769 400.7V126.3C769 110.67 756.33 98.0001 740.7 98V92L741.585 92.0117C759.825 92.4737 774.527 107.175 774.989 125.415L775 126.3V400.7C775 419.643 759.643 435 740.7 435L466.3 435C447.357 435 432 419.643 432 400.7L432 126.3L432.011 125.415C432.48 106.881 447.652 92.0001 466.3 92V98C450.67 98.0001 438 110.67 438 126.3ZM534.9 98V92L740.7 92V98L534.9 98Z" fill="white"/>
<path d="M816.3 98V92L884.9 92V98L816.3 98ZM788 126.3L788 400.7C788 416.33 800.67 429 816.3 429L1090.7 429C1106.33 429 1119 416.33 1119 400.7V126.3C1119 110.67 1106.33 98.0001 1090.7 98V92L1091.58 92.0117C1109.83 92.4737 1124.53 107.175 1124.99 125.415L1125 126.3V400.7C1125 419.643 1109.64 435 1090.7 435L816.3 435C797.356 435 782 419.643 782 400.7L782 126.3L782.011 125.415C782.48 106.881 797.652 92.0001 816.3 92V98C800.67 98.0001 788 110.67 788 126.3ZM884.9 98V92L1090.7 92V98L884.9 98Z" fill="white"/>
<path d="M1166.3 98V92L1234.9 92V98L1166.3 98ZM1138 126.3V400.7C1138 416.33 1150.67 429 1166.3 429L1440.7 429C1456.33 429 1469 416.33 1469 400.7V126.3C1469 110.67 1456.33 98.0001 1440.7 98V92L1441.58 92.0117C1459.83 92.4737 1474.53 107.175 1474.99 125.415L1475 126.3V400.7C1475 419.643 1459.64 435 1440.7 435L1166.3 435C1147.36 435 1132 419.643 1132 400.7V126.3L1132.01 125.415C1132.48 106.881 1147.65 92.0001 1166.3 92V98C1150.67 98.0001 1138 110.67 1138 126.3ZM1234.9 98V92L1440.7 92V98L1234.9 98Z" fill="white"/>
</svg>
