<svg width="1563" height="2631" viewBox="0 0 1563 2631" fill="none" xmlns="http://www.w3.org/2000/svg">
<path d="M55 3.5H1508C1536.44 3.5 1559.5 26.5573 1559.5 55V2575.5C1559.5 2603.94 1536.44 2627 1508 2627H55C26.5573 2627 3.5 2603.94 3.5 2575.5V55C3.50003 26.5574 26.5574 3.5 55 3.5Z" stroke="white" stroke-width="7" stroke-miterlimit="3.99393"/>
<path d="M390.7 1482L116.3 1482C99.0134 1482 85.0001 1467.99 85 1450.7L85 1176.3C85.0002 1159.01 99.0135 1145 116.3 1145L390.7 1145C407.987 1145 422 1159.01 422 1176.3L422 1450.7C422 1467.99 407.987 1482 390.7 1482Z" stroke="white" stroke-width="6"/>
<path d="M390.7 1832L116.3 1832C99.0134 1832 85.0001 1817.99 85 1800.7L85 1526.3C85.0002 1509.01 99.0135 1495 116.3 1495L390.7 1495C407.987 1495 422 1509.01 422 1526.3L422 1800.7C422 1817.99 407.987 1832 390.7 1832Z" stroke="white" stroke-width="6"/>
<path d="M390.7 2182L116.3 2182C99.0134 2182 85.0001 2167.99 85 2150.7L85 1876.3C85.0002 1859.01 99.0135 1845 116.3 1845L390.7 1845C407.987 1845 422 1859.01 422 1876.3L422 2150.7C422 2167.99 407.987 2182 390.7 2182Z" stroke="white" stroke-width="6"/>
<path d="M390.7 2532L116.3 2532C99.0134 2532 85.0001 2517.99 85 2500.7L85 2226.3C85.0002 2209.01 99.0135 2195 116.3 2195L390.7 2195C407.987 2195 422 2209.01 422 2226.3L422 2500.7C422 2517.99 407.987 2532 390.7 2532Z" stroke="white" stroke-width="6"/>
<path d="M740.7 1482L466.3 1482C449.013 1482 435 1467.99 435 1450.7L435 1176.3C435 1159.01 449.013 1145 466.3 1145L740.7 1145C757.987 1145 772 1159.01 772 1176.3L772 1450.7C772 1467.99 757.987 1482 740.7 1482Z" stroke="white" stroke-width="6"/>
<path d="M740.7 1832L466.3 1832C449.013 1832 435 1817.99 435 1800.7L435 1526.3C435 1509.01 449.013 1495 466.3 1495L740.7 1495C757.987 1495 772 1509.01 772 1526.3L772 1800.7C772 1817.99 757.987 1832 740.7 1832Z" stroke="white" stroke-width="6"/>
<path d="M740.7 2182L466.3 2182C449.013 2182 435 2167.99 435 2150.7L435 1876.3C435 1859.01 449.013 1845 466.3 1845L740.7 1845C757.987 1845 772 1859.01 772 1876.3L772 2150.7C772 2167.99 757.987 2182 740.7 2182Z" stroke="white" stroke-width="6"/>
<path d="M740.7 2532L466.3 2532C449.013 2532 435 2517.99 435 2500.7L435 2226.3C435 2209.01 449.013 2195 466.3 2195L740.7 2195C757.987 2195 772 2209.01 772 2226.3L772 2500.7C772 2517.99 757.987 2532 740.7 2532Z" stroke="white" stroke-width="6"/>
<path d="M1090.7 1482L816.3 1482C799.013 1482 785 1467.99 785 1450.7L785 1176.3C785 1159.01 799.013 1145 816.3 1145L1090.7 1145C1107.99 1145 1122 1159.01 1122 1176.3L1122 1450.7C1122 1467.99 1107.99 1482 1090.7 1482Z" stroke="white" stroke-width="6"/>
<path d="M1090.7 1832L816.3 1832C799.013 1832 785 1817.99 785 1800.7L785 1526.3C785 1509.01 799.013 1495 816.3 1495L1090.7 1495C1107.99 1495 1122 1509.01 1122 1526.3L1122 1800.7C1122 1817.99 1107.99 1832 1090.7 1832Z" stroke="white" stroke-width="6"/>
<path d="M1090.7 2182L816.3 2182C799.013 2182 785 2167.99 785 2150.7L785 1876.3C785 1859.01 799.013 1845 816.3 1845L1090.7 1845C1107.99 1845 1122 1859.01 1122 1876.3L1122 2150.7C1122 2167.99 1107.99 2182 1090.7 2182Z" stroke="white" stroke-width="6"/>
<path d="M1090.7 2532L816.3 2532C799.013 2532 785 2517.99 785 2500.7L785 2226.3C785 2209.01 799.013 2195 816.3 2195L1090.7 2195C1107.99 2195 1122 2209.01 1122 2226.3L1122 2500.7C1122 2517.99 1107.99 2532 1090.7 2532Z" stroke="white" stroke-width="6"/>
<path d="M1440.7 1482L1166.3 1482C1149.01 1482 1135 1467.99 1135 1450.7L1135 1176.3C1135 1159.01 1149.01 1145 1166.3 1145L1440.7 1145C1457.99 1145 1472 1159.01 1472 1176.3L1472 1450.7C1472 1467.99 1457.99 1482 1440.7 1482Z" stroke="white" stroke-width="6"/>
<path d="M1440.7 1832L1166.3 1832C1149.01 1832 1135 1817.99 1135 1800.7L1135 1526.3C1135 1509.01 1149.01 1495 1166.3 1495L1440.7 1495C1457.99 1495 1472 1509.01 1472 1526.3L1472 1800.7C1472 1817.99 1457.99 1832 1440.7 1832Z" stroke="white" stroke-width="6"/>
<path d="M1440.7 2182L1166.3 2182C1149.01 2182 1135 2167.99 1135 2150.7L1135 1876.3C1135 1859.01 1149.01 1845 1166.3 1845L1440.7 1845C1457.99 1845 1472 1859.01 1472 1876.3L1472 2150.7C1472 2167.99 1457.99 2182 1440.7 2182Z" stroke="white" stroke-width="6"/>
<path d="M1440.7 2532L1166.3 2532C1149.01 2532 1135 2517.99 1135 2500.7L1135 2226.3C1135 2209.01 1149.01 2195 1166.3 2195L1440.7 2195C1457.99 2195 1472 2209.01 1472 2226.3L1472 2500.7C1472 2517.99 1457.99 2532 1440.7 2532Z" stroke="white" stroke-width="6"/>
<path d="M390.7 1132L116.3 1132C99.0134 1132 85.0001 1117.99 85 1100.7L85 826.3C85.0002 809.013 99.0135 795 116.3 795L390.7 795C407.987 795 422 809.013 422 826.3L422 1100.7C422 1117.99 407.987 1132 390.7 1132Z" stroke="white" stroke-width="6"/>
<path d="M740.7 1132L466.3 1132C449.013 1132 435 1117.99 435 1100.7L435 826.3C435 809.013 449.013 795 466.3 795L740.7 795C757.987 795 772 809.013 772 826.3L772 1100.7C772 1117.99 757.987 1132 740.7 1132Z" stroke="white" stroke-width="6"/>
<path d="M1090.7 1132L816.3 1132C799.013 1132 785 1117.99 785 1100.7L785 826.3C785 809.013 799.013 795 816.3 795L1090.7 795C1107.99 795 1122 809.013 1122 826.3L1122 1100.7C1122 1117.99 1107.99 1132 1090.7 1132Z" stroke="white" stroke-width="6"/>
<path d="M1440.7 1132L1166.3 1132C1149.01 1132 1135 1117.99 1135 1100.7L1135 826.3C1135 809.013 1149.01 795 1166.3 795L1440.7 795C1457.99 795 1472 809.013 1472 826.3L1472 1100.7C1472 1117.99 1457.99 1132 1440.7 1132Z" stroke="white" stroke-width="6"/>
<path d="M390.7 782L116.3 782C99.0134 782 85.0001 767.987 85 750.7L85 476.3C85.0002 459.013 99.0135 445 116.3 445L390.7 445C407.987 445 422 459.013 422 476.3L422 750.7C422 767.987 407.987 782 390.7 782Z" stroke="white" stroke-width="6"/>
<path d="M740.7 782L466.3 782C449.013 782 435 767.987 435 750.7L435 476.3C435 459.013 449.013 445 466.3 445L740.7 445C757.987 445 772 459.013 772 476.3L772 750.7C772 767.987 757.987 782 740.7 782Z" stroke="white" stroke-width="6"/>
<path d="M1090.7 782L816.3 782C799.013 782 785 767.987 785 750.7L785 476.3C785 459.013 799.013 445 816.3 445L1090.7 445C1107.99 445 1122 459.013 1122 476.3L1122 750.7C1122 767.987 1107.99 782 1090.7 782Z" stroke="white" stroke-width="6"/>
<path d="M1440.7 782L1166.3 782C1149.01 782 1135 767.987 1135 750.7L1135 476.3C1135 459.013 1149.01 445 1166.3 445L1440.7 445C1457.99 445 1472 459.013 1472 476.3L1472 750.7C1472 767.987 1457.99 782 1440.7 782Z" stroke="white" stroke-width="6"/>
<path d="M390.7 432L116.3 432C99.0134 432 85.0001 417.987 85 400.7L85 126.3C85.0002 109.013 99.0135 95.0001 116.3 95L390.7 95C407.987 95.0001 422 109.013 422 126.3L422 400.7C422 417.987 407.987 432 390.7 432Z" stroke="white" stroke-width="6"/>
<path d="M740.7 432L466.3 432C449.013 432 435 417.987 435 400.7L435 126.3C435 109.013 449.013 95.0001 466.3 95L740.7 95C757.987 95.0001 772 109.013 772 126.3L772 400.7C772 417.987 757.987 432 740.7 432Z" stroke="white" stroke-width="6"/>
<path d="M1090.7 432L816.3 432C799.013 432 785 417.987 785 400.7L785 126.3C785 109.013 799.013 95.0001 816.3 95L1090.7 95C1107.99 95.0001 1122 109.013 1122 126.3L1122 400.7C1122 417.987 1107.99 432 1090.7 432Z" stroke="white" stroke-width="6"/>
<path d="M1440.7 432L1166.3 432C1149.01 432 1135 417.987 1135 400.7L1135 126.3C1135 109.013 1149.01 95.0001 1166.3 95L1440.7 95C1457.99 95.0001 1472 109.013 1472 126.3L1472 400.7C1472 417.987 1457.99 432 1440.7 432Z" stroke="white" stroke-width="6"/>
</svg>
