<svg width="1563" height="1807" viewBox="0 0 1563 1807" fill="none" xmlns="http://www.w3.org/2000/svg">
<rect x="3.5" y="3.5" width="1556" height="1800" rx="51.5" stroke="white" stroke-width="7" stroke-miterlimit="3.99393"/>
<path d="M390.7 1482L116.3 1482C99.0134 1482 85.0001 1467.99 85 1450.7L85 1176.3C85.0002 1159.01 99.0135 1145 116.3 1145L390.7 1145C407.987 1145 422 1159.01 422 1176.3L422 1450.7C422 1467.99 407.987 1482 390.7 1482Z" stroke="white" stroke-width="6"/>
<path d="M740.7 1482L466.3 1482C449.013 1482 435 1467.99 435 1450.7L435 1176.3C435 1159.01 449.013 1145 466.3 1145L740.7 1145C757.987 1145 772 1159.01 772 1176.3L772 1450.7C772 1467.99 757.987 1482 740.7 1482Z" stroke="white" stroke-width="6"/>
<path d="M1090.7 1482L816.3 1482C799.013 1482 785 1467.99 785 1450.7L785 1176.3C785 1159.01 799.013 1145 816.3 1145L1090.7 1145C1107.99 1145 1122 1159.01 1122 1176.3L1122 1450.7C1122 1467.99 1107.99 1482 1090.7 1482Z" stroke="white" stroke-width="6"/>
<path d="M1440.7 1482L1166.3 1482C1149.01 1482 1135 1467.99 1135 1450.7L1135 1176.3C1135 1159.01 1149.01 1145 1166.3 1145L1440.7 1145C1457.99 1145 1472 1159.01 1472 1176.3L1472 1450.7C1472 1467.99 1457.99 1482 1440.7 1482Z" stroke="white" stroke-width="6"/>
<path d="M390.7 1132L116.3 1132C99.0134 1132 85.0001 1117.99 85 1100.7L85 826.3C85.0002 809.013 99.0135 795 116.3 795L390.7 795C407.987 795 422 809.013 422 826.3L422 1100.7C422 1117.99 407.987 1132 390.7 1132Z" stroke="white" stroke-width="6"/>
<path d="M740.7 1132L466.3 1132C449.013 1132 435 1117.99 435 1100.7L435 826.3C435 809.013 449.013 795 466.3 795L740.7 795C757.987 795 772 809.013 772 826.3L772 1100.7C772 1117.99 757.987 1132 740.7 1132Z" stroke="white" stroke-width="6"/>
<path d="M1090.7 1132L816.3 1132C799.013 1132 785 1117.99 785 1100.7L785 826.3C785 809.013 799.013 795 816.3 795L1090.7 795C1107.99 795 1122 809.013 1122 826.3L1122 1100.7C1122 1117.99 1107.99 1132 1090.7 1132Z" stroke="white" stroke-width="6"/>
<path d="M1440.7 1132L1166.3 1132C1149.01 1132 1135 1117.99 1135 1100.7L1135 826.3C1135 809.013 1149.01 795 1166.3 795L1440.7 795C1457.99 795 1472 809.013 1472 826.3L1472 1100.7C1472 1117.99 1457.99 1132 1440.7 1132Z" stroke="white" stroke-width="6"/>
<path d="M390.7 782L116.3 782C99.0134 782 85.0001 767.987 85 750.7L85 476.3C85.0002 459.013 99.0135 445 116.3 445L390.7 445C407.987 445 422 459.013 422 476.3L422 750.7C422 767.987 407.987 782 390.7 782Z" stroke="white" stroke-width="6"/>
<path d="M740.7 782L466.3 782C449.013 782 435 767.987 435 750.7L435 476.3C435 459.013 449.013 445 466.3 445L740.7 445C757.987 445 772 459.013 772 476.3L772 750.7C772 767.987 757.987 782 740.7 782Z" stroke="white" stroke-width="6"/>
<path d="M1090.7 782L816.3 782C799.013 782 785 767.987 785 750.7L785 476.3C785 459.013 799.013 445 816.3 445L1090.7 445C1107.99 445 1122 459.013 1122 476.3L1122 750.7C1122 767.987 1107.99 782 1090.7 782Z" stroke="white" stroke-width="6"/>
<path d="M1440.7 782L1166.3 782C1149.01 782 1135 767.987 1135 750.7L1135 476.3C1135 459.013 1149.01 445 1166.3 445L1440.7 445C1457.99 445 1472 459.013 1472 476.3L1472 750.7C1472 767.987 1457.99 782 1440.7 782Z" stroke="white" stroke-width="6"/>
<path d="M390.7 432L116.3 432C99.0134 432 85.0001 417.987 85 400.7L85 126.3C85.0002 109.013 99.0135 95.0001 116.3 95L390.7 95C407.987 95.0001 422 109.013 422 126.3L422 400.7C422 417.987 407.987 432 390.7 432Z" stroke="white" stroke-width="6"/>
<path d="M740.7 432L466.3 432C449.013 432 435 417.987 435 400.7L435 126.3C435 109.013 449.013 95.0001 466.3 95L740.7 95C757.987 95.0001 772 109.013 772 126.3L772 400.7C772 417.987 757.987 432 740.7 432Z" stroke="white" stroke-width="6"/>
<path d="M1090.7 432L816.3 432C799.013 432 785 417.987 785 400.7L785 126.3C785 109.013 799.013 95.0001 816.3 95L1090.7 95C1107.99 95.0001 1122 109.013 1122 126.3L1122 400.7C1122 417.987 1107.99 432 1090.7 432Z" stroke="white" stroke-width="6"/>
<path d="M1440.7 432L1166.3 432C1149.01 432 1135 417.987 1135 400.7L1135 126.3C1135 109.013 1149.01 95.0001 1166.3 95L1440.7 95C1457.99 95.0001 1472 109.013 1472 126.3L1472 400.7C1472 417.987 1457.99 432 1440.7 432Z" stroke="white" stroke-width="6"/>
<path d="M1021.42 1673H1002.16V1625.7L967.562 1673H958L923.406 1625.7V1673H904.188V1610H932.688L962.781 1648.62L992.922 1610H1021.42V1673Z" fill="white"/>
<path d="M892.422 1622.61H833.781V1635.45H892.422V1647.5H833.781V1660.34H892.422V1673H814.562V1610H892.422V1622.61Z" fill="white"/>
<path d="M773.969 1673H754.703V1624.02H721.469V1610H807.203V1624.02H773.969V1673Z" fill="white"/>
<path d="M723.016 1653.64C723.016 1654.48 722.938 1655.59 722.781 1656.97C722.625 1658.31 722.156 1659.77 721.375 1661.33C720.594 1662.89 719.297 1664.45 717.484 1666.02C715.703 1667.55 713.188 1668.95 709.938 1670.23C706.719 1671.52 702.578 1672.55 697.516 1673.33C692.484 1674.11 686.297 1674.5 678.953 1674.5C673.047 1674.5 667.453 1674.22 662.172 1673.66C656.891 1673.09 652.219 1672.11 648.156 1670.7C644.094 1669.3 640.891 1667.36 638.547 1664.89C636.234 1662.39 635.078 1659.22 635.078 1655.38H656.547C656.547 1656.94 657.078 1658.22 658.141 1659.22C659.203 1660.19 660.578 1660.95 662.266 1661.52C663.984 1662.05 665.844 1662.44 667.844 1662.69C669.844 1662.94 671.812 1663.09 673.75 1663.16C675.719 1663.19 677.453 1663.2 678.953 1663.2C683.859 1663.2 687.844 1662.95 690.906 1662.45C694 1661.92 696.391 1661.22 698.078 1660.34C699.797 1659.47 700.969 1658.45 701.594 1657.3C702.25 1656.14 702.578 1654.92 702.578 1653.64C702.578 1651.89 701.609 1650.58 699.672 1649.7C697.766 1648.83 695.031 1648.2 691.469 1647.83C687.906 1647.42 683.625 1647.11 678.625 1646.89C677.281 1646.83 675.953 1646.77 674.641 1646.7C670.359 1646.52 666.25 1646.28 662.312 1646C658.375 1645.72 654.75 1645.27 651.438 1644.64C648.125 1643.98 645.234 1643.05 642.766 1641.83C640.297 1640.61 638.375 1639 637 1637C635.625 1634.97 634.938 1632.39 634.938 1629.27C634.938 1628.42 635.016 1627.33 635.172 1625.98C635.328 1624.61 635.797 1623.14 636.578 1621.58C637.359 1620.02 638.641 1618.47 640.422 1616.94C642.234 1615.38 644.75 1613.95 647.969 1612.67C651.219 1611.39 655.359 1610.36 660.391 1609.58C665.453 1608.8 671.641 1608.41 678.953 1608.41C684.891 1608.41 690.5 1608.69 695.781 1609.25C701.062 1609.81 705.719 1610.8 709.75 1612.2C713.812 1613.61 717.016 1615.56 719.359 1618.06C721.703 1620.53 722.875 1623.69 722.875 1627.53H701.359C701.359 1625.97 700.828 1624.7 699.766 1623.73C698.734 1622.73 697.359 1621.95 695.641 1621.39C693.953 1620.83 692.109 1620.44 690.109 1620.22C688.109 1619.97 686.125 1619.83 684.156 1619.8C682.188 1619.73 680.453 1619.7 678.953 1619.7C674.078 1619.7 670.094 1619.97 667 1620.5C663.938 1621 661.547 1621.69 659.828 1622.56C658.141 1623.44 656.969 1624.45 656.312 1625.61C655.688 1626.77 655.375 1627.98 655.375 1629.27C655.375 1631.02 656.328 1632.33 658.234 1633.2C660.172 1634.08 662.922 1634.7 666.484 1635.08C670.047 1635.45 674.328 1635.75 679.328 1635.97C680.672 1636.06 682 1636.13 683.312 1636.16C687.594 1636.34 691.703 1636.59 695.641 1636.91C699.578 1637.19 703.203 1637.64 706.516 1638.27C709.828 1638.89 712.719 1639.81 715.188 1641.03C717.656 1642.25 719.578 1643.88 720.953 1645.91C722.328 1647.94 723.016 1650.52 723.016 1653.64Z" fill="white"/>
<path d="M604.188 1673H584.969V1651.3L549.812 1610H571.516L594.578 1638.36L617.641 1610H639.344L604.188 1651.3V1673Z" fill="white"/>
<path d="M558.016 1653.64C558.016 1654.48 557.938 1655.59 557.781 1656.97C557.625 1658.31 557.156 1659.77 556.375 1661.33C555.594 1662.89 554.297 1664.45 552.484 1666.02C550.703 1667.55 548.188 1668.95 544.938 1670.23C541.719 1671.52 537.578 1672.55 532.516 1673.33C527.484 1674.11 521.297 1674.5 513.953 1674.5C508.047 1674.5 502.453 1674.22 497.172 1673.66C491.891 1673.09 487.219 1672.11 483.156 1670.7C479.094 1669.3 475.891 1667.36 473.547 1664.89C471.234 1662.39 470.078 1659.22 470.078 1655.38H491.547C491.547 1656.94 492.078 1658.22 493.141 1659.22C494.203 1660.19 495.578 1660.95 497.266 1661.52C498.984 1662.05 500.844 1662.44 502.844 1662.69C504.844 1662.94 506.812 1663.09 508.75 1663.16C510.719 1663.19 512.453 1663.2 513.953 1663.2C518.859 1663.2 522.844 1662.95 525.906 1662.45C529 1661.92 531.391 1661.22 533.078 1660.34C534.797 1659.47 535.969 1658.45 536.594 1657.3C537.25 1656.14 537.578 1654.92 537.578 1653.64C537.578 1651.89 536.609 1650.58 534.672 1649.7C532.766 1648.83 530.031 1648.2 526.469 1647.83C522.906 1647.42 518.625 1647.11 513.625 1646.89C512.281 1646.83 510.953 1646.77 509.641 1646.7C505.359 1646.52 501.25 1646.28 497.312 1646C493.375 1645.72 489.75 1645.27 486.438 1644.64C483.125 1643.98 480.234 1643.05 477.766 1641.83C475.297 1640.61 473.375 1639 472 1637C470.625 1634.97 469.938 1632.39 469.938 1629.27C469.938 1628.42 470.016 1627.33 470.172 1625.98C470.328 1624.61 470.797 1623.14 471.578 1621.58C472.359 1620.02 473.641 1618.47 475.422 1616.94C477.234 1615.38 479.75 1613.95 482.969 1612.67C486.219 1611.39 490.359 1610.36 495.391 1609.58C500.453 1608.8 506.641 1608.41 513.953 1608.41C519.891 1608.41 525.5 1608.69 530.781 1609.25C536.062 1609.81 540.719 1610.8 544.75 1612.2C548.812 1613.61 552.016 1615.56 554.359 1618.06C556.703 1620.53 557.875 1623.69 557.875 1627.53H536.359C536.359 1625.97 535.828 1624.7 534.766 1623.73C533.734 1622.73 532.359 1621.95 530.641 1621.39C528.953 1620.83 527.109 1620.44 525.109 1620.22C523.109 1619.97 521.125 1619.83 519.156 1619.8C517.188 1619.73 515.453 1619.7 513.953 1619.7C509.078 1619.7 505.094 1619.97 502 1620.5C498.938 1621 496.547 1621.69 494.828 1622.56C493.141 1623.44 491.969 1624.45 491.312 1625.61C490.688 1626.77 490.375 1627.98 490.375 1629.27C490.375 1631.02 491.328 1632.33 493.234 1633.2C495.172 1634.08 497.922 1634.7 501.484 1635.08C505.047 1635.45 509.328 1635.75 514.328 1635.97C515.672 1636.06 517 1636.12 518.312 1636.16C522.594 1636.34 526.703 1636.59 530.641 1636.91C534.578 1637.19 538.203 1637.64 541.516 1638.27C544.828 1638.89 547.719 1639.81 550.188 1641.03C552.656 1642.25 554.578 1643.88 555.953 1645.91C557.328 1647.94 558.016 1650.52 558.016 1653.64Z" fill="white"/>
<path d="M421.141 1673H401.875V1625.7L367.281 1673H357.719L323.125 1625.7V1673H303.906V1610H332.406L362.5 1648.62L392.641 1610H421.141V1673Z" fill="white"/>
<path d="M292.141 1622.61H233.5V1635.45H292.141V1647.5H233.5V1660.34H292.141V1673H214.281V1610H292.141V1622.61Z" fill="white"/>
<path d="M171.672 1610H200.172V1673H180.906V1626.45L146.312 1673H136.75L102.156 1626.45V1673H82.9375V1610H111.391L141.531 1648.62L171.672 1610Z" fill="white"/>
</svg>
