<svg width="1890" height="4493" viewBox="0 0 1890 4493" fill="none" xmlns="http://www.w3.org/2000/svg">
<path d="M1089.7 4286L815.3 4286C798.013 4286 784 4271.99 784 4254.7L784 3980.3C784 3963.01 798.013 3949 815.3 3949L1089.7 3949C1106.99 3949 1121 3963.01 1121 3980.3L1121 4254.7C1121 4271.99 1106.99 4286 1089.7 4286Z" stroke="white" stroke-width="6"/>
<path d="M1439.7 4286L1165.3 4286C1148.01 4286 1134 4271.99 1134 4254.7L1134 3980.3C1134 3963.01 1148.01 3949 1165.3 3949L1439.7 3949C1456.98 3949 1471 3963.01 1471 3980.3L1471 4254.7C1471 4271.99 1456.98 4286 1439.7 4286Z" stroke="white" stroke-width="6"/>
<path d="M1090.7 3937L816.3 3937C799.013 3937 785 3922.99 785 3905.7L785 3631.3C785 3614.01 799.013 3600 816.3 3600L1090.7 3600C1107.99 3600 1122 3614.01 1122 3631.3L1122 3905.7C1122 3922.99 1107.99 3937 1090.7 3937Z" stroke="white" stroke-width="6"/>
<path d="M1440.7 3937L1166.3 3937C1149.01 3937 1135 3922.99 1135 3905.7L1135 3631.3C1135 3614.01 1149.01 3600 1166.3 3600L1440.7 3600C1457.98 3600 1472 3614.01 1472 3631.3L1472 3905.7C1472 3922.99 1457.98 3937 1440.7 3937Z" stroke="white" stroke-width="6"/>
<path d="M787 3538.5H1469C1497.44 3538.5 1520.5 3561.56 1520.5 3590V4296C1520.5 4324.44 1497.44 4347.5 1469 4347.5H787C758.557 4347.5 735.5 4324.44 735.5 4296V3590C735.5 3561.56 758.557 3538.5 787 3538.5Z" stroke="white" stroke-width="7" stroke-miterlimit="3.99393"/>
<circle cx="954" cy="3416" r="27" stroke="white" stroke-width="6"/>
<path d="M954 3369C979.957 3369 1001 3390.04 1001 3416C1001 3438.73 984.855 3457.71 963.403 3462.06L961 3462.55L961 3591.5C961 3593.16 959.657 3594.5 958 3594.5L950 3594.5C948.343 3594.5 947 3593.16 947 3591.5L947 3466L947.001 3465L947.003 3462.55L944.598 3462.06C923.145 3457.71 907 3438.73 907 3416C907 3390.04 928.043 3369 954 3369Z" stroke="white" stroke-width="6"/>
<circle cx="1302" cy="4442.5" r="27" transform="rotate(180 1302 4442.5)" stroke="white" stroke-width="6"/>
<path d="M1302 4489.5C1276.04 4489.5 1255 4468.46 1255 4442.5C1255 4419.77 1271.14 4400.79 1292.6 4396.44L1295 4395.95L1295 4340L1295 4339.85C1295.08 4338.26 1296.39 4337 1298 4337L1306 4337C1307.66 4337 1309 4338.34 1309 4340L1309 4392.5L1309 4393.5L1309 4395.95L1311.4 4396.44C1332.85 4400.79 1349 4419.77 1349 4442.5C1349 4468.46 1327.96 4489.5 1302 4489.5Z" stroke="white" stroke-width="6"/>
<path d="M1441.7 2786L1167.3 2786C1150.01 2786 1136 2771.99 1136 2754.7L1136 2480.3C1136 2463.01 1150.01 2449 1167.3 2449L1441.7 2449C1458.99 2449 1473 2463.01 1473 2480.3L1473 2754.7C1473 2771.99 1458.99 2786 1441.7 2786Z" stroke="white" stroke-width="6"/>
<path d="M1092.7 2437L818.3 2437C801.013 2437 787 2422.99 787 2405.7L787 2131.3C787 2114.01 801.013 2100 818.3 2100L1092.7 2100C1109.99 2100 1124 2114.01 1124 2131.3L1124 2405.7C1124 2422.99 1109.99 2437 1092.7 2437Z" stroke="white" stroke-width="6"/>
<path d="M1441.7 2437L1167.3 2437C1150.01 2437 1136 2422.99 1136 2405.7L1136 2131.3C1136 2114.01 1150.01 2100 1167.3 2100L1441.7 2100C1458.99 2100 1473 2114.01 1473 2131.3L1473 2405.7C1473 2422.99 1458.99 2437 1441.7 2437Z" stroke="white" stroke-width="6"/>
<path d="M1790.7 2437L1516.3 2437C1499.01 2437 1485 2422.99 1485 2405.7L1485 2131.3C1485 2114.01 1499.01 2100 1516.3 2100L1790.7 2100C1807.99 2100 1822 2114.01 1822 2131.3L1822 2405.7C1822 2422.99 1807.99 2437 1790.7 2437Z" stroke="white" stroke-width="6"/>
<path d="M1092.7 2786L818.3 2786C801.013 2786 787 2771.99 787 2754.7L787 2480.3C787 2463.01 801.013 2449 818.3 2449L1092.7 2449C1109.99 2449 1124 2463.01 1124 2480.3L1124 2754.7C1124 2771.99 1109.99 2786 1092.7 2786Z" stroke="white" stroke-width="6"/>
<path d="M1790.7 2786L1516.3 2786C1499.01 2786 1485 2771.99 1485 2754.7L1485 2480.3C1485 2463.01 1499.01 2449 1516.3 2449L1790.7 2449C1807.99 2449 1822 2463.01 1822 2480.3L1822 2754.7C1822 2771.99 1807.99 2786 1790.7 2786Z" stroke="white" stroke-width="6"/>
<path d="M1092.7 3135L818.3 3135C801.013 3135 787 3120.99 787 3103.7L787 2829.3C787 2812.01 801.013 2798 818.3 2798L1092.7 2798C1109.99 2798 1124 2812.01 1124 2829.3L1124 3103.7C1124 3120.99 1109.99 3135 1092.7 3135Z" stroke="white" stroke-width="6"/>
<path d="M1441.7 3135L1167.3 3135C1150.01 3135 1136 3120.99 1136 3103.7L1136 2829.3C1136 2812.01 1150.01 2798 1167.3 2798L1441.7 2798C1458.99 2798 1473 2812.01 1473 2829.3L1473 3103.7C1473 3120.99 1458.99 3135 1441.7 3135Z" stroke="white" stroke-width="6"/>
<path d="M1790.7 3135L1516.3 3135C1499.01 3135 1485 3120.99 1485 3103.7L1485 2829.3C1485 2812.01 1499.01 2798 1516.3 2798L1790.7 2798C1807.99 2798 1822 2812.01 1822 2829.3L1822 3103.7C1822 3120.99 1807.99 3135 1790.7 3135Z" stroke="white" stroke-width="6"/>
<path d="M787 2045.5H1835C1863.44 2045.5 1886.5 2068.56 1886.5 2097V3140C1886.5 3168.44 1863.44 3191.5 1835 3191.5H787C758.557 3191.5 735.5 3168.44 735.5 3140V2097C735.5 2068.56 758.557 2045.5 787 2045.5Z" stroke="white" stroke-width="7" stroke-miterlimit="3.99393"/>
<circle cx="1302" cy="1915" r="27" stroke="white" stroke-width="6"/>
<path d="M1302 1868C1327.96 1868 1349 1889.04 1349 1915C1349 1937.73 1332.86 1956.71 1311.4 1961.06L1309 1961.55L1309 2090.5C1309 2092.16 1307.66 2093.5 1306 2093.5L1298 2093.5C1296.34 2093.5 1295 2092.16 1295 2090.5L1295 1965L1295 1964L1295 1961.55L1292.6 1961.06C1271.15 1956.71 1255 1937.73 1255 1915C1255 1889.04 1276.04 1868 1302 1868Z" stroke="white" stroke-width="6"/>
<circle cx="955" cy="3301.5" r="27" transform="rotate(180 955 3301.5)" stroke="white" stroke-width="6"/>
<path d="M955 3348.5C929.043 3348.5 908 3327.46 908 3301.5C908 3278.77 924.145 3259.79 945.597 3255.44L948 3254.95L948 3139L948.004 3138.85C948.084 3137.26 949.395 3136 951 3136L959 3136C960.657 3136 962 3137.34 962 3139L962 3251.5L961.999 3252.5L961.997 3254.95L964.402 3255.44C985.855 3259.79 1002 3278.77 1002 3301.5C1002 3327.46 980.957 3348.5 955 3348.5Z" stroke="white" stroke-width="6"/>
<rect x="3.5" y="137.5" width="1556" height="1581" rx="51.5" stroke="white" stroke-width="7" stroke-miterlimit="3.99393"/>
<path d="M390.699 1616L116.299 1616C99.0124 1616 84.9991 1601.99 84.999 1584.7L84.9991 1310.3C84.9992 1293.01 99.0125 1279 116.299 1279L390.699 1279C407.986 1279 421.999 1293.01 421.999 1310.3L421.999 1584.7C421.999 1601.99 407.986 1616 390.699 1616Z" stroke="white" stroke-width="6"/>
<path d="M740.699 1616L466.299 1616C449.012 1616 434.999 1601.99 434.999 1584.7L434.999 1310.3C434.999 1293.01 449.012 1279 466.299 1279L740.699 1279C757.986 1279 771.999 1293.01 771.999 1310.3L771.999 1584.7C771.999 1601.99 757.986 1616 740.699 1616Z" stroke="white" stroke-width="6"/>
<path d="M1090.7 1616L816.299 1616C799.012 1616 784.999 1601.99 784.999 1584.7L784.999 1310.3C784.999 1293.01 799.012 1279 816.299 1279L1090.7 1279C1107.99 1279 1122 1293.01 1122 1310.3L1122 1584.7C1122 1601.99 1107.99 1616 1090.7 1616Z" stroke="white" stroke-width="6"/>
<path d="M1440.7 1616L1166.3 1616C1149.01 1616 1135 1601.99 1135 1584.7L1135 1310.3C1135 1293.01 1149.01 1279 1166.3 1279L1440.7 1279C1457.99 1279 1472 1293.01 1472 1310.3L1472 1584.7C1472 1601.99 1457.99 1616 1440.7 1616Z" stroke="white" stroke-width="6"/>
<path d="M390.699 1266L116.299 1266C99.0124 1266 84.9991 1251.99 84.999 1234.7L84.9991 960.3C84.9992 943.013 99.0125 929 116.299 929L390.699 929C407.986 929 421.999 943.013 421.999 960.3L421.999 1234.7C421.999 1251.99 407.986 1266 390.699 1266Z" stroke="white" stroke-width="6"/>
<path d="M740.699 1266L466.299 1266C449.012 1266 434.999 1251.99 434.999 1234.7L434.999 960.3C434.999 943.013 449.012 929 466.299 929L740.699 929C757.986 929 771.999 943.013 771.999 960.3L771.999 1234.7C771.999 1251.99 757.986 1266 740.699 1266Z" stroke="white" stroke-width="6"/>
<path d="M1090.7 1266L816.299 1266C799.012 1266 784.999 1251.99 784.999 1234.7L784.999 960.3C784.999 943.013 799.012 929 816.299 929L1090.7 929C1107.99 929 1122 943.013 1122 960.3L1122 1234.7C1122 1251.99 1107.99 1266 1090.7 1266Z" stroke="white" stroke-width="6"/>
<path d="M1440.7 1266L1166.3 1266C1149.01 1266 1135 1251.99 1135 1234.7L1135 960.3C1135 943.013 1149.01 929 1166.3 929L1440.7 929C1457.99 929 1472 943.013 1472 960.3L1472 1234.7C1472 1251.99 1457.99 1266 1440.7 1266Z" stroke="white" stroke-width="6"/>
<path d="M390.699 916L116.299 916C99.0124 916 84.9991 901.987 84.999 884.7L84.9991 610.3C84.9992 593.013 99.0125 579 116.299 579L390.699 579C407.986 579 421.999 593.013 421.999 610.3L421.999 884.7C421.999 901.987 407.986 916 390.699 916Z" stroke="white" stroke-width="6"/>
<path d="M740.699 916L466.299 916C449.012 916 434.999 901.987 434.999 884.7L434.999 610.3C434.999 593.013 449.012 579 466.299 579L740.699 579C757.986 579 771.999 593.013 771.999 610.3L771.999 884.7C771.999 901.987 757.986 916 740.699 916Z" stroke="white" stroke-width="6"/>
<path d="M1090.7 916L816.299 916C799.012 916 784.999 901.987 784.999 884.7L784.999 610.3C784.999 593.013 799.012 579 816.299 579L1090.7 579C1107.99 579 1122 593.013 1122 610.3L1122 884.7C1122 901.987 1107.99 916 1090.7 916Z" stroke="white" stroke-width="6"/>
<path d="M1440.7 916L1166.3 916C1149.01 916 1135 901.987 1135 884.7L1135 610.3C1135 593.013 1149.01 579 1166.3 579L1440.7 579C1457.99 579 1472 593.013 1472 610.3L1472 884.7C1472 901.987 1457.99 916 1440.7 916Z" stroke="white" stroke-width="6"/>
<path d="M390.699 566L116.299 566C99.0124 566 84.9991 551.987 84.999 534.7L84.9991 260.3C84.9992 243.013 99.0125 229 116.299 229L390.699 229C407.986 229 421.999 243.013 421.999 260.3L421.999 534.7C421.999 551.987 407.986 566 390.699 566Z" stroke="white" stroke-width="6"/>
<path d="M740.699 566L466.299 566C449.012 566 434.999 551.987 434.999 534.7L434.999 260.3C434.999 243.013 449.012 229 466.299 229L740.699 229C757.986 229 771.999 243.013 771.999 260.3L771.999 534.7C771.999 551.987 757.986 566 740.699 566Z" stroke="white" stroke-width="6"/>
<path d="M1090.7 566L816.299 566C799.012 566 784.999 551.987 784.999 534.7L784.999 260.3C784.999 243.013 799.012 229 816.299 229L1090.7 229C1107.99 229 1122 243.013 1122 260.3L1122 534.7C1122 551.987 1107.99 566 1090.7 566Z" stroke="white" stroke-width="6"/>
<path d="M1440.7 566L1166.3 566C1149.01 566 1135 551.987 1135 534.7L1135 260.3C1135 243.013 1149.01 229 1166.3 229L1440.7 229C1457.99 229 1472 243.013 1472 260.3L1472 534.7C1472 551.987 1457.99 566 1440.7 566Z" stroke="white" stroke-width="6"/>
<circle cx="602.999" cy="50" r="27" stroke="white" stroke-width="6"/>
<path d="M602.999 3.00001C628.956 3.00001 649.999 24.0426 649.999 50C649.999 72.7347 633.854 91.705 612.402 96.0596L609.999 96.5479L609.999 225.5C609.999 227.157 608.656 228.5 606.999 228.5L598.999 228.5C597.342 228.5 595.999 227.157 595.999 225.5L595.999 100.003L596 99.0029L596.002 96.5479L593.597 96.0596C572.144 91.7054 555.999 72.735 555.999 50C555.999 24.0426 577.042 3 602.999 3.00001Z" stroke="white" stroke-width="6"/>
<circle cx="1303" cy="1800.5" r="27" transform="rotate(180 1303 1800.5)" stroke="white" stroke-width="6"/>
<path d="M1303 1847.5C1277.04 1847.5 1256 1826.46 1256 1800.5C1256 1777.77 1272.14 1758.79 1293.6 1754.44L1296 1753.95L1296 1625C1296 1623.34 1297.34 1622 1299 1622L1307 1622C1308.66 1622 1310 1623.34 1310 1625L1310 1750.5L1310 1751.5L1310 1753.95L1312.4 1754.44C1333.85 1758.79 1350 1777.77 1350 1800.5C1350 1826.46 1328.96 1847.5 1303 1847.5Z" stroke="white" stroke-width="6"/>
</svg>
