<svg width="300" height="300" viewBox="0 0 300 300" fill="none" xmlns="http://www.w3.org/2000/svg">
<path d="M0 270V166C0 162.79 2.52111 160.168 5.69141 160.008L6 160H64C67.3137 160 70 157.314 70 154V146C70 142.686 67.3137 140 64 140V134C70.6274 134 76 139.373 76 146V154C76 160.627 70.6274 166 64 166H6V270C6 283.255 16.7452 294 30 294V300L29.2256 299.99C13.0149 299.579 0 286.31 0 270ZM270 294V300H30V294H270ZM294 270V166H236C229.373 166 224 160.627 224 154V146C224 139.373 229.373 134 236 134V140C232.686 140 230 142.686 230 146V154C230 157.314 232.686 160 236 160H294C297.314 160 300 162.686 300 166V270C300 286.569 286.569 300 270 300V294C283.255 294 294 283.255 294 270ZM294 134V140H236V134H294ZM64 134V140H6V134H64ZM134 64V6H30C16.7452 6 6 16.7452 6 30V140C2.68629 140 0 137.314 0 134V30C2.06163e-06 13.4315 13.4315 0 30 0H134C137.314 0 140 2.68629 140 6V64C140 67.3137 142.686 70 146 70H154C157.314 70 160 67.3137 160 64V6C160 2.68629 162.686 0 166 0H270C286.569 0 300 13.4315 300 30V134C300 137.314 297.314 140 294 140V30C294 16.7452 283.255 6 270 6H166V64C166 70.6274 160.627 76 154 76H146C139.373 76 134 70.6274 134 64Z" fill="white"/>
<path d="M174 150C174 136.745 163.255 126 150 126C136.745 126 126 136.745 126 150C126 163.255 136.745 174 150 174V180C133.431 180 120 166.569 120 150C120 133.431 133.431 120 150 120C166.569 120 180 133.431 180 150C180 166.569 166.569 180 150 180V174C163.255 174 174 163.255 174 150Z" fill="white"/>
<path d="M194 150C194 125.699 174.301 106 150 106C125.699 106 106 125.699 106 150C106 174.301 125.699 194 150 194V200C122.386 200 100 177.614 100 150C100 122.386 122.386 100 150 100C177.614 100 200 122.386 200 150C200 177.614 177.614 200 150 200V194C174.301 194 194 174.301 194 150Z" fill="white"/>
</svg>
