<svg width="300" height="300" viewBox="0 0 300 300" fill="none" xmlns="http://www.w3.org/2000/svg">
<path d="M300 30L300 134C300 137.21 297.479 139.832 294.309 139.992L294 140L236 140C232.686 140 230 142.686 230 146L230 154C230 157.314 232.686 160 236 160L236 166C229.373 166 224 160.627 224 154L224 146C224 139.373 229.373 134 236 134L294 134L294 30C294 16.7452 283.255 6 270 6L270 2.62268e-06L270.774 0.00976818C286.985 0.420518 300 13.6904 300 30ZM30 6.00002L30 2.36041e-05L270 2.62268e-06L270 6L30 6.00002ZM6.00001 30L6.00002 134L64 134C70.6274 134 76 139.373 76 146L76 154C76 160.627 70.6274 166 64 166L64 160C67.3137 160 70 157.314 70 154L70 146C70 142.686 67.3137 140 64 140L6.00002 140C2.6863 140 2.45418e-05 137.314 1.60054e-05 134L6.91343e-06 30C5.46496e-06 13.4315 13.4315 2.50526e-05 30 2.36041e-05L30 6.00002C16.7452 6.00002 6.00001 16.7452 6.00001 30ZM6.00002 166L6.00002 160L64 160L64 166L6.00002 166ZM236 166L236 160L294 160L294 166L236 166ZM166 236L166 294L270 294C283.255 294 294 283.255 294 270L294 160C297.314 160 300 162.686 300 166L300 270C300 286.569 286.569 300 270 300L166 300C162.686 300 160 297.314 160 294L160 236C160 232.686 157.314 230 154 230L146 230C142.686 230 140 232.686 140 236L140 294C140 297.314 137.314 300 134 300L30 300C13.4315 300 3.03742e-05 286.569 2.78949e-05 270L1.88029e-05 166C1.85132e-05 162.686 2.6863 160 6.00002 160L6.00003 270C6.00003 283.255 16.7452 294 30 294L134 294L134 236C134 229.373 139.373 224 146 224L154 224C160.627 224 166 229.373 166 236Z" fill="white"/>
<path d="M126 150C126 163.255 136.745 174 150 174C163.255 174 174 163.255 174 150C174 136.745 163.255 126 150 126L150 120C166.569 120 180 133.431 180 150C180 166.569 166.569 180 150 180C133.431 180 120 166.569 120 150C120 133.431 133.431 120 150 120L150 126C136.745 126 126 136.745 126 150Z" fill="white"/>
<path d="M106 150C106 174.301 125.699 194 150 194C174.301 194 194 174.301 194 150C194 125.699 174.301 106 150 106L150 100C177.614 100 200 122.386 200 150C200 177.614 177.614 200 150 200C122.386 200 100 177.614 100 150C100 122.386 122.386 100 150 100L150 106C125.699 106 106 125.699 106 150Z" fill="white"/>
</svg>
